<?xml version="1.0" encoding="utf-8"?>
<!-- Generator: Adobe Illustrator 24.1.0, SVG Export Plug-In . SVG Version: 6.00 Build 0)  -->
<svg version="1.1" id="Layer_1" xmlns="http://www.w3.org/2000/svg" xmlns:xlink="http://www.w3.org/1999/xlink" x="0px" y="0px"
	 viewBox="0 0 24 24" style="enable-background:new 0 0 24 24;" xml:space="preserve">
<style type="text/css">
	.st0{fill:none;}
	.st1{fill:#6C6D74;}
</style>
<path class="st0" d="M0,0h24v24H0V0z"/>
<path class="st1" d="M21,6h-4c0-2.8-2.2-5-5-5S7,3.2,7,6H3v16h18V6z M12,3c1.7,0,3,1.3,3,3H9C9,4.3,10.3,3,12,3z M12,13
	c-2.8,0-5-2.2-5-5h2c0,1.7,1.3,3,3,3s3-1.3,3-3h2C17,10.8,14.8,13,12,13z"/>
</svg>
