<?xml version="1.0" encoding="utf-8"?>
<!-- Generator: Adobe Illustrator 24.1.0, SVG Export Plug-In . SVG Version: 6.00 Build 0)  -->
<svg version="1.1" id="Layer_1" xmlns="http://www.w3.org/2000/svg" xmlns:xlink="http://www.w3.org/1999/xlink" x="0px" y="0px"
	 viewBox="0 0 20 20" style="enable-background:new 0 0 20 20;" xml:space="preserve">
<style type="text/css">
	.st0{fill:#6C6D74;}
</style>
<path class="st0" d="M7.5,18.1c0,1-0.8,1.9-1.9,1.9s-1.9-0.8-1.9-1.9s0.8-1.9,1.9-1.9S7.5,17.1,7.5,18.1z"/>
<path class="st0" d="M20,18.1c0,1-0.8,1.9-1.9,1.9s-1.9-0.8-1.9-1.9s0.8-1.9,1.9-1.9S20,17.1,20,18.1z"/>
<path class="st0" d="M20,10V2.5H5c0-0.7-0.6-1.2-1.2-1.2H0v1.2h2.5l0.9,8c-0.6,0.5-0.9,1.2-0.9,2C2.5,13.9,3.6,15,5,15h15v-1.2H5
	c-0.7,0-1.2-0.6-1.2-1.2c0,0,0,0,0,0L20,10z"/>
</svg>
